<svg xmlns="http://www.w3.org/2000/svg" width="188" height="173" fill="none" viewBox="0 0 188 173">
  <path fill="#F87BB5" d="M138.889 95.796c-.95-14.335 7.489-30.162 18.848-35.351 11.359-5.19 21.338 2.223 22.289 16.558.95 14.334-7.489 30.161-18.848 35.35-11.28 5.154-21.214-2.118-22.271-16.299"/>
  <path stroke="#E5C5D5" stroke-linecap="round" stroke-width="1.478" d="M138.889 95.796c-.95-14.335 7.489-30.162 18.848-35.351 11.359-5.19 21.338 2.223 22.289 16.558.95 14.334-7.489 30.161-18.848 35.35-11.28 5.154-21.214-2.118-22.271-16.299"/>
  <path fill="#F87BB5" d="M101.516 52.948c-4.767-14.944 1.106-34.155 13.119-42.909 12.012-8.753 25.615-3.733 30.383 11.212 4.767 14.945-1.106 34.156-13.119 42.91-11.928 8.69-25.443 3.809-30.295-10.944"/>
  <path stroke="#E5C5D5" stroke-linecap="round" stroke-width="1.562" d="M101.516 52.948c-4.767-14.944 1.106-34.155 13.119-42.909 12.012-8.753 25.615-3.733 30.383 11.212 4.767 14.945-1.106 34.156-13.119 42.91-11.928 8.69-25.443 3.809-30.295-10.944"/>
  <path fill="#F87BB5" stroke="#E5C5D5" stroke-linecap="round" stroke-width="1.435" d="M88.402 27.976c5.64 15.45 1.651 33.097-8.91 39.414s-23.695-1.087-29.335-16.538c-5.64-15.45-1.652-33.096 8.91-39.414 10.56-6.317 23.694 1.087 29.335 16.538Z"/>
  <path fill="#F87BB5" d="M23.491 103.998C12.211 95.437 5.884 77.531 9.36 64.005c3.475-13.525 15.437-17.55 26.718-8.987 11.28 8.562 17.606 26.467 14.131 39.993-3.451 13.43-15.28 17.508-26.513 9.14"/>
  <path stroke="#E5C5D5" stroke-linecap="round" stroke-width="1.381" d="M23.491 103.998C12.211 95.437 5.884 77.531 9.36 64.005c3.475-13.525 15.437-17.55 26.718-8.987 11.28 8.562 17.606 26.467 14.131 39.993-3.451 13.43-15.28 17.508-26.513 9.14"/>
  <path fill="#F87BB5" stroke="#E5C5D5" stroke-width=".897" d="M31.778 127.218c-4.658 6.085-4.551 18.976.882 25.876 12.415 15.765 38.317 17.355 58.961 18.304 22.074 1.015 50.849 2.713 64.727-13.697 4.264-5.042 2.756-13.469.109-19.434-4.047-9.118-15.238-13.461-22.474-20.56-6.408-6.286-10.165-15.837-18.522-19.487-12.21-5.333-27.58-5.112-40.276-.938-6.584 2.166-10.516 8.74-16.138 12.662-8.323 5.806-17.95 9.85-25.968 16.035-.476.368-1.3 1.24-1.3 1.24l-.001-.001Z"/>
</svg>
