<svg xmlns="http://www.w3.org/2000/svg" width="589" height="532" fill="none" viewBox="0 0 589 532">
  <path fill="#F87BB5" d="M52.55 479.662c1.25 8.206 11.622 11.444 20.105 12.797 88.147 14.068 178.08 12.365 267.403 10.523 35.212-.739 70.511-1.577 105.462-5.764 23.417-2.791 71.049-5.359 88.379-22.008-12.318-7.16-35.837-3.224-50.029-3.308-35.052-.195-70.105-.335-105.157-.167a8368.248 8368.248 0 0 0-207.336 3.545 8436.829 8436.829 0 0 0-118.827 4.382Z" opacity=".18"/>
  <path fill="#F87BB5" d="M275.822 490.38a7.261 7.261 0 0 1-3.966 1.2 298.151 298.151 0 0 1-30.941 2.066 10.795 10.795 0 0 1-4.184-.573 3.36 3.36 0 0 1-1.753-1.139 3.144 3.144 0 0 1-.694-1.921 3.14 3.14 0 0 1 .64-1.938 3.356 3.356 0 0 1 1.72-1.184 11.5 11.5 0 0 1 4.155-.726c11.127-.474 22.705-.879 33.817.265.481.004.948.156 1.332.434.383.278.664.668.799 1.111.135.443.118.916-.048 1.349a2.165 2.165 0 0 1-.877 1.056Zm-171.427-2.484c1 1.265 2.195 2.376 3.545 3.293a16.393 16.393 0 0 0 7.147 1.787c4.842.465 9.708.828 14.599 1.088a4.15 4.15 0 0 0 2.615-.418 2.744 2.744 0 0 0 .861-1.904 2.728 2.728 0 0 0-.745-1.948 9.14 9.14 0 0 0-3.85-2.149c-7.96-2.989-15.19-7.527-21.237-13.328-2.354-2.275-10.401-11.012-12.798-3.643-1.845 5.61 6.479 13.398 9.863 17.222Z"/>
  <path fill="#3E3E54" d="M493.341 454.764a16.214 16.214 0 0 1 4.053 4.843 14.42 14.42 0 0 1 .901 6.894 70.512 70.512 0 0 1-1.453 10.732c-.218 1.089-.755 2.429-1.917 2.485a2.519 2.519 0 0 1-.957-.254 2.42 2.42 0 0 1-.772-.598 11.49 11.49 0 0 1-2.62-3.756 11.109 11.109 0 0 1-.91-4.436 8.45 8.45 0 0 0-.247-3.475c-.835-1.411-2.195-2.468-3.806-2.959l-10.895-4.814c-3.007-1.326-6.275-2.931-7.394-5.904-1.743-4.633 4.082-12.56 9.341-12.56 5.258 0 13.03 10.425 16.676 13.802Zm-136.258 8.151a34.924 34.924 0 0 1-5.229 4.312 11.838 11.838 0 0 0-4.257 5.108 4.924 4.924 0 0 0-.141 3.236 5.107 5.107 0 0 0 1.914 2.667c2.832 1.675 6.377-.474 8.919-2.526l16.691-13.384a12.245 12.245 0 0 0 4.053-4.563c1.045-2.61.116-5.583-1.104-8.081a17.164 17.164 0 0 0-4.039-5.736c-11.81-10.257-12.362 13.873-16.807 18.967Z"/>
  <path fill="url(#a)" d="M493.341 454.764a16.214 16.214 0 0 1 4.053 4.843 14.42 14.42 0 0 1 .901 6.894 70.512 70.512 0 0 1-1.453 10.732c-.218 1.089-.755 2.429-1.917 2.485a2.519 2.519 0 0 1-.957-.254 2.42 2.42 0 0 1-.772-.598 11.49 11.49 0 0 1-2.62-3.756 11.109 11.109 0 0 1-.91-4.436 8.45 8.45 0 0 0-.247-3.475c-.835-1.411-2.195-2.468-3.806-2.959l-10.895-4.814c-3.007-1.326-6.275-2.931-7.394-5.904-1.743-4.633 4.082-12.56 9.341-12.56 5.258 0 13.03 10.425 16.676 13.802Z"/>
  <path fill="url(#b)" d="M357.083 462.915a34.924 34.924 0 0 1-5.229 4.312 11.838 11.838 0 0 0-4.257 5.108 4.924 4.924 0 0 0-.141 3.236 5.107 5.107 0 0 0 1.914 2.667c2.832 1.675 6.377-.474 8.919-2.526l16.691-13.384a12.245 12.245 0 0 0 4.053-4.563c1.045-2.61.116-5.583-1.104-8.081a17.164 17.164 0 0 0-4.039-5.736c-11.81-10.257-12.362 13.873-16.807 18.967Z"/>
  <path fill="url(#c)" d="M176.926 339.39c-14.657 41.073-35.27 79.912-55.825 118.626-1.453 2.694-3.007 5.582-5.811 6.978-2.803 1.396-6.973.796-7.975-2.065a7.42 7.42 0 0 1 0-3.573c2.905-17.613 9.094-34.667 10.837-52.419.624-6.405.697-13.049 3.384-18.952 3.4-7.466 10.576-12.867 13.917-20.362 2.179-4.898 2.556-10.341 3.225-15.644a131.647 131.647 0 0 1 4.546-21.562 138.778 138.778 0 0 1 39.847 8.527"/>
  <path fill="url(#d)" d="M228.597 331.352c9.689 42.398 13.073 85.871 16.429 129.162.232 3.015.421 6.239-1.119 8.862-1.539 2.624-5.534 4.187-7.931 2.219a7.624 7.624 0 0 1-1.961-3.028c-7.089-16.468-10.982-34.164-19.088-50.242-2.905-5.791-6.464-11.499-7.365-17.891-1.133-8.067 2.077-16.273.872-24.325-.785-5.29-3.414-10.132-5.709-14.989a135.664 135.664 0 0 1-7.772-20.697 138.306 138.306 0 0 1 38.655-12.56"/>
  <path fill="url(#e)" d="M226.171 204.241c4.445 9.169 8.933 18.408 15.107 26.614 6.174 8.206 14.207 15.351 24.012 19.106 8.905 3.377 19.19 3.879 26.802 9.462a4.993 4.993 0 0 1 1.801 2.023 4.524 4.524 0 0 1-.392 3.294c-4.358 10.216-19.393 14.486-28.835 8.178-2.15-1.395-3.981-3.279-6.145-4.689a65.67 65.67 0 0 0-9.21-4.187c-6.537-2.903-12.144-7.41-17.649-11.862-5.506-4.452-10.939-8.988-13.074-15.352-2.455-7.411-9.065-14.961-8.077-22.678.567-4.494 1.671-9.281 1.017-13.761-.479-3.307.523-12.128 2.658-14.933 2.935 4.731 9.486 13.719 11.985 18.785Z"/>
  <path fill="url(#f)" d="M221.144 110.373c.37 3.209.084 6.457-.842 9.56-.964 3.111-3.097 5.767-5.985 7.453a14.265 14.265 0 0 1-5.436 1.422 14.314 14.314 0 0 1-5.575-.781 3.638 3.638 0 0 0-2.382-.237c-.55.277-.986.724-1.235 1.27-1.7 2.973-1.714 6.546-2.905 9.769-.349.908.581 8.681-.218 9.267-.799.586-2.906-6.168-3.647-6.015a17.54 17.54 0 0 1-6.871 0 5.253 5.253 0 0 1-2.222-.865c-.552-.405-8.585 4.94-8.934 4.354-4.489-7.564 4.445-22.832 4.169-31.554-.189-6.085-1.06-12.756 2.557-17.752 2.498-3.433 6.668-5.345 10.779-6.7a36.118 36.118 0 0 1 11.33-2.065c5.607 0 10.169 1.591 12.667 6.462a44.094 44.094 0 0 1 4.75 16.412Z"/>
  <path fill="#3E3E54" d="M215.261 82.824c1.918 3.629 1.932 8.374-.813 11.5a13.399 13.399 0 0 1-4.126 2.945 30.297 30.297 0 0 1-10.299 3.042 6.212 6.212 0 0 0-2.905.74 4.994 4.994 0 0 0-1.627 2.288 25.524 25.524 0 0 0-1.903 7.955c-.973.531-2.194-.223-2.833-1.102-.639-.879-1.104-1.968-2.092-2.484-1.714-.935-3.965.656-4.358 2.512a7.098 7.098 0 0 0 1.86 5.233c1.205 1.591 2.716 3.405 2.164 5.303a5.837 5.837 0 0 1-2.498 2.792l-6.406 4.647c-.264.3-.594.539-.967.7a2.818 2.818 0 0 1-2.36-.054 2.712 2.712 0 0 1-.93-.744 46.24 46.24 0 0 1-8.033-7.606c-3.656-5.027-5.418-11.102-4.997-17.221a32.096 32.096 0 0 1 4.192-14.017c2.465-4.315 5.901-8.046 10.058-10.923 11.476-7.787 31.523-9.56 38.873 4.494Z"/>
  <path fill="#3E3E54" d="M163.475 59.071a15.452 15.452 0 0 0-8.768 1.422c-2.705 1.319-4.926 3.398-6.369 5.96a18.716 18.716 0 0 0-1.859 8.179c-.087 1.703.084 3.41.508 5.066 1.03 3.054 2.915 5.777 5.447 7.871a17.704 17.704 0 0 0 4.358 3 19.353 19.353 0 0 0 11.171.824 20.766 20.766 0 0 0 5.128-1.395 12.737 12.737 0 0 0 4.477-3.422 12.113 12.113 0 0 0 2.481-4.952 6.702 6.702 0 0 0 0-3.098 10.899 10.899 0 0 0-.973-2.233c-1.947-3.629-2.673-7.871-5.259-11.165-2.492-3.24-6.204-5.413-10.342-6.057Z"/>
  <path fill="#F87BB5" d="M156.124 242.131c-6.377-5.652-5.956-9.252-6.842-17.556a58.145 58.145 0 0 1 2.179-23c3.588-11.862-3.835-22.329-.421-34.303 2.092-7.299 14.86-45.706 46.601-22.33 4.358 3.196 5.941 8.82 9.267 12.993 3.806 4.759 8.847 8.597 12.072 13.733a24.804 24.804 0 0 1 3.497 11.809 24.717 24.717 0 0 1-2.64 12.014c-1.859 3.726-4.678 6.573-6.319 10.425a37.02 37.02 0 0 0-2.426 15.268 239.76 239.76 0 0 0 1.278 21.073c.48 4.55 3.458 10.495.349 14.5-3.109 4.006-12.188 4.941-16.807 5.652-11.621 1.801-24.521.684-33.905-6.782-4.169-3.308-7.554-8.583-5.883-13.524"/>
  <path fill="url(#g)" d="M177.492 212.852c-.697 8.457 1.322 16.872 1.715 25.344.392 8.471-.901 17.333-2.194 25.93l-3.021 20.041a3.06 3.06 0 0 1-.393 1.242c-.915 1.395-3.108.53-4.358-.572-6.638-6.099-6.231-16.134-7.858-24.828-1.787-9.532-6.465-18.324-9.167-27.661a61.511 61.511 0 0 1 .131-35.56 92.349 92.349 0 0 1 8.861-18.603c3.501-5.945 7.438-11.932 13.321-15.77 4.126-2.708 14.526-16.943 18.884-12.951 3.952 3.628-.77 21.604-2.309 25.567-4.75 12.477-12.493 24.27-13.612 37.821Z"/>
  <path fill="#fff" d="M237.472 336.111a6.365 6.365 0 0 1-1.213 4.567 6.853 6.853 0 0 1-4.089 2.606 37.08 37.08 0 0 1-2.252.865c-9.035 3.28-21.47 5.038-30.578 5.89a6.722 6.722 0 0 1-4.271-.572 6.403 6.403 0 0 1-1.873-2.261c-1.104-1.842-2.078-6.504-3.095-10.467a.198.198 0 0 1 0-.084c-.188-.74-.377-1.396-.566-2.107a15.51 15.51 0 0 0-1.264-3.336c.081.495.081.999 0 1.493-.305 3.964-2.716 13.231-4.227 14.263a13.963 13.963 0 0 1-6.159 1.954c-11.697 1.681-23.647-.239-34.138-5.484a50.207 50.207 0 0 1-4.445-2.582 6.875 6.875 0 0 1-2.702-2.68 1.565 1.565 0 0 1-.087-.614c-.101-2.791 1.54-12.449 1.714-13.635 2.906-19.538 5.811-39.076 10.706-58.154.9-3.86 2.075-7.655 3.516-11.36a96.1 96.1 0 0 1 .581-1.396 10.785 10.785 0 0 1 3.443-4.801c2.338-1.605 5.462-1.493 8.323-1.312l28.124 1.717c1.719.077 3.443.035 5.156-.126a72.686 72.686 0 0 1 8.106-.46c3.603.125 5.811 2.386 8.106 5.122 4.794 5.582 7.365 12.699 9.573 19.538 5.883 18.045 14.221 44.491 13.611 63.416Z"/>
  <path fill="url(#h)" d="M115.857 256.38c-2.15 3.489-4.649 6.769-6.508 10.398-3.451 6.796-4.496 14.49-2.978 21.91.784 3.782 2.397 7.648 5.651 9.909 3.254 2.261 8.44 2.219 10.793-.907 3.326-4.424-.407-11.946 3.937-15.449 0 1.395 2.484 1.772 3.471.656a5.4 5.4 0 0 0 .756-4.187c-.451-4.466-.16-8.82-.61-13.286 4.053-5.904 8.149-11.891 10.473-18.59 2.906-8.373 2.906-17.5 7.176-25.26 3.094-5.694 8.135-10.118 12.784-14.737 11.399-11.386 20.729-24.529 27.6-38.882 2.557-5.359 4.808-10.997 5.07-16.886.232-5.234-8.498-8.499-13.96-8.304-5.462.195-10.503 3.084-14.294 6.866a61.582 61.582 0 0 0-9.21 12.951 145667.99 145667.99 0 0 1-23.853 40.57c-1.583 2.764-10.575 43.948-16.298 53.228Z"/>
  <path fill="#3E3E54" d="M233.768 487.868a3.499 3.499 0 0 0 1.06 1.94 3.947 3.947 0 0 0 2.383.516c12.25 0 24.477-.488 36.679-1.465 1.453-.112 3.239-.586 3.37-1.954a2.704 2.704 0 0 0-.363-1.396c-2.528-5.08-7.902-8.192-13.074-10.941a440.82 440.82 0 0 0-14.773-7.62 5.394 5.394 0 0 0-2.906-.823 6.353 6.353 0 0 0-2.396.976c-3.356 1.801-8.513 1.396-10.329 5.025-2.062 4.326-.842 11.346.349 15.742Zm-133.556-24.493c-1.453 1.48-2.906 3.14-2.993 5.15a8.179 8.179 0 0 0 1.802 4.591 114.73 114.73 0 0 0 8.28 10.9 15.809 15.809 0 0 0 5.389 4.55c1.486.579 3.052.946 4.648 1.088 3.908.489 7.845.81 11.781.921a5.443 5.443 0 0 0 3.385-.67c1.627-1.228 1.177-3.712.232-5.484a16.59 16.59 0 0 0-4.851-5.583 14.19 14.19 0 0 1-2.601-2.065 10.088 10.088 0 0 1-1.757-3.824 82.12 82.12 0 0 0-3.908-10.076 1.717 1.717 0 0 0-.719-1.017 1.835 1.835 0 0 0-1.242-.295c-3.69-.14-6.522-1.521-9.951-2.484-3.065-.838-5.578 2.302-7.495 4.298Zm396.151-51.972c-.625 2.233-2.601 3.838-4.46 5.289a21.183 21.183 0 0 1-6.537 3.95 6.991 6.991 0 0 0-3.53 1.633 4.277 4.277 0 0 0-.77 1.954c-1.452 7.857 2.441 16.342-.653 23.725-1.526 3.154-5.114 4.87-8.556 5.973-8.222 2.666-17.011 3.238-25.698 3.559a490.356 490.356 0 0 1-66.821-2.108 19.873 19.873 0 0 1-5.942-1.214c-4.866-2.093-7.118-7.55-7.8-12.63-.262-1.94-.436-4.075-1.831-5.499-3.602-3.67-8.353 0-12.071 1.019-5.632 1.328-11.575.628-16.706-1.968-5.883-3.042-10.168-9.266-9.674-15.686a3.258 3.258 0 0 1 .479-1.689c.38-.423.887-.722 1.452-.857a2.918 2.918 0 0 1 1.7.104 13.42 13.42 0 0 1 2.993 1.702c6.362 4.075 14.73 3.057 22.283 1.898 13.699-2.121 26.729-5.01 40.674-5.68l32.046-1.549c7.365-.349 18.303 1.13 22.545-6.35 1.801-3.168-1.017-6.545-.218-10.076a41.226 41.226 0 0 1 3.399-9.392c1.337-2.638 2.586-5.722 5.142-7.467.523-.349 4.998-3.21 7.758-.167v.307c-.146 1.005-1.366 3.991-1.453 5.582-.131 1.117-1.293 8.932.959 7.383.152-.11.28-.248.377-.405.102-.17.189-.347.262-.53.624-1.396 1.046-2.959 1.685-4.396 1.589-3.577 4.396-6.53 7.96-8.374a3.087 3.087 0 0 1 1.903-.475c.345.097.659.276.913.519.254.244.44.546.54.877.216.664.255 1.369.116 2.052a31.389 31.389 0 0 1-1.452 4.661 16.176 16.176 0 0 0-.698 2.889c-.25 1.532.074 3.1.915 4.424.262.425.564.827.901 1.2a14.264 14.264 0 0 0 4.358 3.224c3.065 1.521 6.464 2.414 9.297 4.284 2.833 1.87 5.157 5.122 4.213 8.304Z"/>
  <path fill="#3E3E54" d="M454.861 474.889c-2.688 3.126-5.491 5.512-8.179 8.653-.915 1.046-5.505 2.051-6.798 2.637a3.483 3.483 0 0 1-2.059.377 3.432 3.432 0 0 1-1.892-.865 3.198 3.198 0 0 1-.653-1.807 3.188 3.188 0 0 1 .507-1.85 11.366 11.366 0 0 1 2.731-2.861c4.126-3.517 7.859-8.248 7.525-13.537-.218-3.391-2.092-6.503-2.469-9.881-.959-8.192 17.751-21.004 24.172-10.927 6.42 10.076-6.857 22.971-12.885 30.061Zm-51.555-4.047a42.225 42.225 0 0 0 10.619 9.308 3.787 3.787 0 0 1 1.714 1.856 2.44 2.44 0 0 1-.277 1.665 2.59 2.59 0 0 1-1.306 1.126 8.106 8.106 0 0 1-3.487.475c-2.905 0-6.086-.126-8.614-1.605a15.9 15.9 0 0 1-2.905-2.317 598.098 598.098 0 0 1-23.359-23.432c-1.917-2.037-3.922-4.284-4.198-6.978-.406-4.186 3.574-7.773 7.845-8.499 4.27-.726 8.599.74 12.492 2.568 6.014 2.791 4.562 6.001 5.579 11.165a35.815 35.815 0 0 0 5.897 14.668Z"/>
  <path fill="#F87BB5" d="M491.467 440.208c-.196.248-.45.449-.741.586a5.496 5.496 0 0 1-2.16.106 5.413 5.413 0 0 1-2.023-.734c-15.747-7.731-29.227-19.231-45.032-26.893-2.324-1.13-4.91-2.386-5.811-4.731a6.01 6.01 0 0 1-.319-1.06c-.887-4.187 4.837-3.629 7.408-2.178 4.881 2.792 9.617 5.778 14.425 8.653l27.6 16.594c2.993 1.786 6.247 3.935 6.987 7.257a2.895 2.895 0 0 1-.334 2.4Z"/>
  <path fill="url(#i)" d="M490.726 440.794a5.496 5.496 0 0 1-2.16.106 5.413 5.413 0 0 1-2.023-.734c-15.747-7.731-29.227-19.231-45.032-26.893-2.324-1.13-4.91-2.386-5.811-4.731a6.01 6.01 0 0 1-.319-1.06c1.656-.838 4.619-.266 6.275.669 4.866 2.792 9.617 5.778 14.41 8.653l27.601 16.594c3.007 1.8 6.26 3.935 7.001 7.257.044.042.044.098.058.139Z"/>
  <path stroke="#3E3E54" stroke-linecap="round" stroke-miterlimit="10" stroke-width="1.605" d="M440.291 407.314S325.532 336.418 293.457 264.74c0 0-2.818-6.238-12.013-2.889m-17.795 8.639s-4.91 3.14-5.723 5.499"/>
  <path fill="#3E3E54" d="M497.278 401.662a3 3 0 0 1 1.874.419c.216.197.387.435.502.7a2 2 0 0 1 .166.835 5.393 5.393 0 0 1-.458 2.149 5.569 5.569 0 0 1-1.285 1.814c-.527.6-1.268.988-2.078 1.089a4.009 4.009 0 0 1-1.524-.422 3.866 3.866 0 0 1-1.221-.974 33.81 33.81 0 0 1-2.528-2.623c-1.016-1.187-1.975-2.792.218-3.043a60.014 60.014 0 0 1 6.334.056Z"/>
  <path fill="url(#j)" d="M497.278 401.662a3 3 0 0 1 1.874.419c.216.197.387.435.502.7a2 2 0 0 1 .166.835 5.393 5.393 0 0 1-.458 2.149 5.569 5.569 0 0 1-1.285 1.814c-.527.6-1.268.988-2.078 1.089a4.009 4.009 0 0 1-1.524-.422 3.866 3.866 0 0 1-1.221-.974 33.81 33.81 0 0 1-2.528-2.623c-1.016-1.187-1.975-2.792.218-3.043a60.014 60.014 0 0 1 6.334.056Z"/>
  <path fill="url(#k)" d="M478.553 395.535a7.271 7.271 0 0 0-4.285-1.884 25.176 25.176 0 0 0-4.925-.139c-.276 0-.61 0-.711-.28a.6.6 0 0 1 0-.474 36.045 36.045 0 0 1 2.905-6.476 12.638 12.638 0 0 1 5.142-4.898 1.313 1.313 0 0 1 .988-.168c.538.196.61.894.509 1.396a31.96 31.96 0 0 1-1.003 3.363 11.785 11.785 0 0 0-.436 3.894c-.25 1.532.075 3.1.916 4.424.259.44.561.856.9 1.242Z"/>
  <path fill="url(#l)" d="M465.029 393.135c.152-.11.281-.248.378-.405v.391c0 .307-.116.74-.465.865-.349.126-.421-.167-.712-.223a3.594 3.594 0 0 0-2.411.935 27.46 27.46 0 0 1-5.593 2.791c-.799-3.838.581-7.787 2.324-11.318a14.8 14.8 0 0 1 2.586-3.95 6.342 6.342 0 0 1 4.256-2.037h.233c-.146 1.005-1.366 3.991-1.453 5.582-.232 1.103-1.394 8.918.857 7.369Z"/>
  <path fill="url(#m)" d="M470.186 404.383c.714 0 1.293-.556 1.293-1.242 0-.686-.579-1.242-1.293-1.242s-1.293.556-1.293 1.242c0 .686.579 1.242 1.293 1.242Z"/>
  <path fill="url(#n)" d="M190.087 336.725c-.189-.74-.378-1.396-.567-2.107a9.6 9.6 0 0 1 .567 2.107Z"/>
  <path fill="url(#o)" d="M237.472 336.111a6.365 6.365 0 0 1-1.213 4.567 6.849 6.849 0 0 1-4.089 2.606 37.08 37.08 0 0 1-2.252.865l-.174-.153a9.81 9.81 0 0 1-2.121-4.48 544.85 544.85 0 0 0-23.14-69.11c-2.078-5.094-10.735-16.077-6.436-21.925a72.686 72.686 0 0 1 8.106-.46c3.603.125 5.811 2.386 8.106 5.122 4.794 5.582 7.365 12.7 9.573 19.538 5.912 18.059 14.25 44.506 13.64 63.43Z"/>
  <defs>
    <linearGradient id="a" x1="499.195" x2="477.265" y1="473.828" y2="449.366" gradientUnits="userSpaceOnUse">
      <stop stop-opacity="0"/>
      <stop offset=".99"/>
    </linearGradient>
    <linearGradient id="b" x1="351.723" x2="370.109" y1="468.623" y2="451.38" gradientUnits="userSpaceOnUse">
      <stop stop-opacity="0"/>
      <stop offset=".99"/>
    </linearGradient>
    <linearGradient id="c" x1="107.141" x2="183.1" y1="398.061" y2="398.061" gradientUnits="userSpaceOnUse">
      <stop stop-color="#E5C5D5"/>
      <stop offset=".42" stop-color="#EAD4D1"/>
      <stop offset="1" stop-color="#F0E9CB"/>
    </linearGradient>
    <linearGradient id="d" x1="194.953" x2="245.186" y1="400.169" y2="400.169" gradientUnits="userSpaceOnUse">
      <stop stop-color="#E5C5D5"/>
      <stop offset=".42" stop-color="#EAD4D1"/>
      <stop offset="1" stop-color="#F0E9CB"/>
    </linearGradient>
    <linearGradient id="e" x1="210.38" x2="294.024" y1="230.646" y2="230.646" gradientUnits="userSpaceOnUse">
      <stop stop-color="#E5C5D5"/>
      <stop offset=".42" stop-color="#EAD4D1"/>
      <stop offset="1" stop-color="#F0E9CB"/>
    </linearGradient>
    <linearGradient id="f" x1="173.628" x2="221.275" y1="117.784" y2="117.784" gradientUnits="userSpaceOnUse">
      <stop stop-color="#E5C5D5"/>
      <stop offset=".42" stop-color="#EAD4D1"/>
      <stop offset="1" stop-color="#F0E9CB"/>
    </linearGradient>
    <linearGradient id="g" x1="132.489" x2="253.276" y1="163.462" y2="307.219" gradientUnits="userSpaceOnUse">
      <stop stop-opacity="0"/>
      <stop offset=".99"/>
    </linearGradient>
    <linearGradient id="h" x1="105.688" x2="193.515" y1="221.463" y2="221.463" gradientUnits="userSpaceOnUse">
      <stop stop-color="#E5C5D5"/>
      <stop offset=".42" stop-color="#EAD4D1"/>
      <stop offset="1" stop-color="#F0E9CB"/>
    </linearGradient>
    <linearGradient id="i" x1="435.366" x2="490.726" y1="424.047" y2="424.047" gradientUnits="userSpaceOnUse">
      <stop stop-opacity="0"/>
      <stop offset=".99"/>
    </linearGradient>
    <linearGradient id="j" x1="500.764" x2="488.876" y1="397.768" y2="411.083" gradientUnits="userSpaceOnUse">
      <stop stop-opacity="0"/>
      <stop offset=".99"/>
    </linearGradient>
    <linearGradient id="k" x1="484.727" x2="470.609" y1="384.119" y2="393.409" gradientUnits="userSpaceOnUse">
      <stop stop-opacity="0"/>
      <stop offset=".99"/>
    </linearGradient>
    <linearGradient id="l" x1="470.636" x2="460.974" y1="371.573" y2="393.484" gradientUnits="userSpaceOnUse">
      <stop stop-opacity="0"/>
      <stop offset=".99"/>
    </linearGradient>
    <linearGradient id="m" x1="473.193" x2="470.445" y1="398.173" y2="403.111" gradientUnits="userSpaceOnUse">
      <stop stop-opacity="0"/>
      <stop offset=".99"/>
    </linearGradient>
    <linearGradient id="n" x1="189.52" x2="190.087" y1="335.608" y2="335.608" gradientUnits="userSpaceOnUse">
      <stop stop-opacity="0"/>
      <stop offset=".99"/>
    </linearGradient>
    <linearGradient id="o" x1="245.433" x2="135.617" y1="285.604" y2="326.098" gradientUnits="userSpaceOnUse">
      <stop stop-opacity="0"/>
      <stop offset=".99"/>
    </linearGradient>
  </defs>
</svg>
